<?xml version="1.0" encoding="utf-8"?>
<!-- Generator: Adobe Illustrator 26.1.0, SVG Export Plug-In . SVG Version: 6.00 Build 0)  -->
<svg version="1.1" id="Capa_1" xmlns="http://www.w3.org/2000/svg" xmlns:xlink="http://www.w3.org/1999/xlink" x="0px" y="0px"
	 viewBox="0 0 1400 600" style="enable-background:new 0 0 1400 600;" xml:space="preserve">
<style type="text/css">
	.st0{fill:none;stroke:#000000;stroke-width:4;stroke-linecap:round;stroke-linejoin:round;stroke-miterlimit:10;}
</style>
<g>
	<g>
		<g>
			<path d="M676.95,291.65c0,0,22.5-1.75,22.5-29.25c0-27.53-18.41-40.93-41.75-40.93h-76.76v153.73h76.76
				c0,0,46.87,1.53,46.87-45.39C704.57,329.82,706.61,291.65,676.95,291.65z M614.77,248.79h42.93c0,0,10.44,0,10.44,15.98
				c0,16.01-6.14,18.33-13.11,18.33h-40.27V248.79z M655.53,347.88h-40.76v-41.09h42.93c0,0,15.56-0.21,15.56,21.11
				C673.26,345.88,661.65,347.75,655.53,347.88z"/>
		</g>
		<g>
			<path d="M767.07,260.57c-56.74,0-56.7,59.07-56.7,59.07s-3.88,58.77,56.7,58.77c0,0,50.46,3.02,50.46-40.88h-25.95
				c0,0,0.86,16.54-23.64,16.54c0,0-25.98,1.81-25.98-26.76h76.39C818.36,327.31,826.78,260.57,767.07,260.57z M790.15,306.79H741.7
				c0,0,3.16-23.69,25.95-23.69C790.44,283.1,790.15,306.79,790.15,306.79z"/>
		</g>
		<g>
			<rect x="735.33" y="230.51" width="60.86" height="18.96"/>
		</g>
	</g>
	<path class="st0" d="M892.81,505.54H506.9c-6.97,0-12.61-5.65-12.61-12.61V107.01c0-6.97,5.65-12.61,12.61-12.61h385.91
		c6.97,0,12.61,5.65,12.61,12.61v385.91C905.43,499.89,899.78,505.54,892.81,505.54z"/>
</g>
</svg>
