<?xml version="1.0" encoding="utf-8"?>
<!-- Generator: Adobe Illustrator 26.1.0, SVG Export Plug-In . SVG Version: 6.00 Build 0)  -->
<svg version="1.1" id="Capa_1" xmlns="http://www.w3.org/2000/svg" xmlns:xlink="http://www.w3.org/1999/xlink" x="0px" y="0px"
	 viewBox="0 0 1400 600" style="enable-background:new 0 0 1400 600;" xml:space="preserve">
<style type="text/css">
	.st0{fill:none;stroke:#000000;stroke-width:4;stroke-linecap:round;stroke-linejoin:round;stroke-miterlimit:10;}
</style>
<g>
	<g>
		<g>
			<path d="M570.91,241.01c2.26-11.72,4.37-23.47,10.79-33.89c14.65-23.76,37.56-32.88,63.98-33.52
				c36.02-0.88,72.1-0.86,108.12,0.02c24.46,0.59,46.23,8.6,61.12,29.66c9.59,13.56,13.16,29.09,13.4,45.14
				c0.52,34.41,0.77,68.84-0.03,103.24c-0.64,27.7-10.33,51.34-36.44,65.43c-12.05,6.5-25.27,9.33-38.76,9.49
				c-35.57,0.41-71.16,0.75-106.71-0.05c-26.68-0.61-49.86-9.56-64.68-33.57c-6.43-10.41-8.53-22.17-10.8-33.89
				C570.91,319.7,570.91,280.35,570.91,241.01z M699.95,197.85c-17.67,0-35.35-0.33-53.01,0.08c-27.59,0.64-44.56,13.49-49.58,37.1
				c-1.07,5.01-1.86,10.19-1.88,15.3c-0.16,33.24-0.61,66.5,0.07,99.73c0.68,33.07,17.5,50.76,49.6,51.93
				c36.25,1.32,72.57,1.21,108.83,0.02c26.74-0.88,42.63-13.67,47.74-36.63c0.91-4.1,1.78-8.32,1.8-12.49
				c0.2-37.9,2.29-75.85-1.15-113.68c-2.04-22.41-17.15-37.05-39.62-40.11C741.89,196.25,720.88,198.27,699.95,197.85z"/>
		</g>
		<g>
			<path d="M766.41,300.45c-0.11,35.71-29.93,65.07-66.54,65.5c-36.73,0.44-67.2-29.7-67.09-66.36
				c0.11-36.04,31.06-66.18,67.25-65.5C737.15,234.8,766.52,264.15,766.41,300.45z M741.63,300.13
				c0.04-22.73-18.79-41.35-41.94-41.47c-23-0.12-42.11,18.59-42.15,41.26c-0.04,22.73,18.79,41.35,41.94,41.47
				C722.48,341.51,741.59,322.8,741.63,300.13z"/>
		</g>
		<g>
			<path d="M768.22,216.76c8.86-0.11,16.36,7.18,16.31,15.86c-0.05,8.33-7.23,15.46-15.82,15.7c-8.83,0.25-16.49-6.91-16.65-15.56
				C751.9,224.02,759.12,216.87,768.22,216.76z"/>
		</g>
	</g>
	<path class="st0" d="M891.92,503.37H507.79c-6.97,0-12.61-5.65-12.61-12.61V109.18c0-6.97,5.65-12.61,12.61-12.61h384.13
		c6.97,0,12.61,5.65,12.61,12.61v381.57C904.54,497.72,898.89,503.37,891.92,503.37z"/>
</g>
</svg>
