<?xml version="1.0" encoding="utf-8"?>
<!-- Generator: Adobe Illustrator 26.1.0, SVG Export Plug-In . SVG Version: 6.00 Build 0)  -->
<svg version="1.1" id="Capa_1" xmlns="http://www.w3.org/2000/svg" xmlns:xlink="http://www.w3.org/1999/xlink" x="0px" y="0px"
	 viewBox="0 0 1400 600" style="enable-background:new 0 0 1400 600;" xml:space="preserve">
<style type="text/css">
	.st0{fill:none;stroke:#000000;stroke-width:4;stroke-linecap:round;stroke-linejoin:round;stroke-miterlimit:10;}
</style>
<g>
	<g>
		<g>
			<path d="M644.38,222.14c0,12.24-7.79,22.25-22.25,22.25c-13.35,0-22.25-10.01-22.25-21.13c0-12.24,8.9-23.36,22.25-23.36
				S644.38,209.9,644.38,222.14z"/>
		</g>
		<g>
			<rect x="599.89" y="255.51" width="44.49" height="144.6"/>
		</g>
		<g>
			<path d="M751.17,257.73c-23.36,0-36.71,13.35-42.27,22.25h-1.11l-2.23-18.91h-40.04c0,12.24,1.11,26.7,1.11,43.38v95.66h44.49
				v-78.98c0-4.45,0-7.79,1.11-11.12c3.34-7.79,8.9-17.8,21.13-17.8c15.57,0,22.25,13.35,22.25,31.15v76.75h44.49V317.8
				C800.11,276.64,778.98,257.73,751.17,257.73z"/>
		</g>
	</g>
	<path class="st0" d="M885.65,498.26h-371.3c-6.97,0-12.61-5.65-12.61-12.61v-371.3c0-6.97,5.65-12.61,12.61-12.61h371.3
		c6.97,0,12.61,5.65,12.61,12.61v371.3C898.26,492.61,892.61,498.26,885.65,498.26z"/>
</g>
</svg>
